<mxfile host="app.diagrams.net" agent="Mozilla/5.0 (Windows NT 10.0; Win64; x64) AppleWebKit/537.36 (KHTML, like Gecko) Chrome/136.0.0.0 Safari/537.36" version="27.0.6">
  <diagram name="第 1 页" id="5cUn_YC4g9-J1ghSnRtY">
    <mxGraphModel dx="919" dy="744" grid="0" gridSize="10" guides="1" tooltips="1" connect="1" arrows="1" fold="1" page="1" pageScale="1" pageWidth="827" pageHeight="1169" math="0" shadow="0">
      <root>
        <mxCell id="0" />
        <mxCell id="1" parent="0" />
        <mxCell id="OYMo4t_dQI_FEYwo78l1-1" value="" style="rounded=0;whiteSpace=wrap;html=1;" vertex="1" parent="1">
          <mxGeometry x="253" y="290" width="407" height="465" as="geometry" />
        </mxCell>
        <mxCell id="OYMo4t_dQI_FEYwo78l1-2" style="rounded=0;orthogonalLoop=1;jettySize=auto;html=1;exitX=1;exitY=0.3333333333333333;exitDx=0;exitDy=0;exitPerimeter=0;entryX=0;entryY=0.5;entryDx=0;entryDy=0;endArrow=none;startFill=0;" edge="1" parent="1" source="OYMo4t_dQI_FEYwo78l1-5" target="OYMo4t_dQI_FEYwo78l1-8">
          <mxGeometry relative="1" as="geometry" />
        </mxCell>
        <mxCell id="OYMo4t_dQI_FEYwo78l1-3" style="rounded=0;orthogonalLoop=1;jettySize=auto;html=1;exitX=1;exitY=0.3333333333333333;exitDx=0;exitDy=0;exitPerimeter=0;entryX=0;entryY=0.5;entryDx=0;entryDy=0;endArrow=none;startFill=0;" edge="1" parent="1" source="OYMo4t_dQI_FEYwo78l1-5" target="OYMo4t_dQI_FEYwo78l1-11">
          <mxGeometry relative="1" as="geometry" />
        </mxCell>
        <mxCell id="OYMo4t_dQI_FEYwo78l1-4" style="rounded=0;orthogonalLoop=1;jettySize=auto;html=1;exitX=1;exitY=0.3333333333333333;exitDx=0;exitDy=0;exitPerimeter=0;entryX=0;entryY=0.5;entryDx=0;entryDy=0;endArrow=none;startFill=0;" edge="1" parent="1" source="OYMo4t_dQI_FEYwo78l1-5" target="OYMo4t_dQI_FEYwo78l1-14">
          <mxGeometry relative="1" as="geometry" />
        </mxCell>
        <mxCell id="OYMo4t_dQI_FEYwo78l1-5" value="用户" style="shape=umlActor;verticalLabelPosition=bottom;verticalAlign=top;html=1;outlineConnect=0;" vertex="1" parent="1">
          <mxGeometry x="138" y="511" width="30" height="60" as="geometry" />
        </mxCell>
        <mxCell id="OYMo4t_dQI_FEYwo78l1-6" style="rounded=0;orthogonalLoop=1;jettySize=auto;html=1;exitX=1;exitY=0;exitDx=0;exitDy=0;entryX=0;entryY=0.5;entryDx=0;entryDy=0;dashed=1;" edge="1" parent="1" source="OYMo4t_dQI_FEYwo78l1-8" target="OYMo4t_dQI_FEYwo78l1-15">
          <mxGeometry relative="1" as="geometry" />
        </mxCell>
        <mxCell id="OYMo4t_dQI_FEYwo78l1-7" value="&amp;lt;&amp;lt;include&amp;gt;&amp;gt;" style="edgeLabel;html=1;align=center;verticalAlign=middle;resizable=0;points=[];" vertex="1" connectable="0" parent="OYMo4t_dQI_FEYwo78l1-6">
          <mxGeometry x="0.0831" y="-1" relative="1" as="geometry">
            <mxPoint as="offset" />
          </mxGeometry>
        </mxCell>
        <mxCell id="OYMo4t_dQI_FEYwo78l1-8" value="数据采集" style="ellipse;whiteSpace=wrap;html=1;" vertex="1" parent="1">
          <mxGeometry x="273" y="368" width="120" height="46" as="geometry" />
        </mxCell>
        <mxCell id="OYMo4t_dQI_FEYwo78l1-9" style="rounded=0;orthogonalLoop=1;jettySize=auto;html=1;exitX=1;exitY=0;exitDx=0;exitDy=0;entryX=0;entryY=0.5;entryDx=0;entryDy=0;dashed=1;" edge="1" parent="1" source="OYMo4t_dQI_FEYwo78l1-11" target="OYMo4t_dQI_FEYwo78l1-19">
          <mxGeometry relative="1" as="geometry" />
        </mxCell>
        <mxCell id="OYMo4t_dQI_FEYwo78l1-10" value="&amp;lt;&amp;lt;include&amp;gt;&amp;gt;" style="edgeLabel;html=1;align=center;verticalAlign=middle;resizable=0;points=[];" vertex="1" connectable="0" parent="OYMo4t_dQI_FEYwo78l1-9">
          <mxGeometry x="0.1242" y="-2" relative="1" as="geometry">
            <mxPoint as="offset" />
          </mxGeometry>
        </mxCell>
        <mxCell id="OYMo4t_dQI_FEYwo78l1-11" value="信号解调" style="ellipse;whiteSpace=wrap;html=1;" vertex="1" parent="1">
          <mxGeometry x="271" y="509" width="120" height="46" as="geometry" />
        </mxCell>
        <mxCell id="OYMo4t_dQI_FEYwo78l1-12" style="rounded=0;orthogonalLoop=1;jettySize=auto;html=1;exitX=1;exitY=0.5;exitDx=0;exitDy=0;entryX=0;entryY=0.5;entryDx=0;entryDy=0;dashed=1;" edge="1" parent="1" source="OYMo4t_dQI_FEYwo78l1-14" target="OYMo4t_dQI_FEYwo78l1-23">
          <mxGeometry relative="1" as="geometry" />
        </mxCell>
        <mxCell id="OYMo4t_dQI_FEYwo78l1-13" value="&amp;lt;&amp;lt;include&amp;gt;&amp;gt;" style="edgeLabel;html=1;align=center;verticalAlign=middle;resizable=0;points=[];" vertex="1" connectable="0" parent="OYMo4t_dQI_FEYwo78l1-12">
          <mxGeometry x="-0.0806" y="1" relative="1" as="geometry">
            <mxPoint as="offset" />
          </mxGeometry>
        </mxCell>
        <mxCell id="OYMo4t_dQI_FEYwo78l1-14" value="数据持久化存储" style="ellipse;whiteSpace=wrap;html=1;" vertex="1" parent="1">
          <mxGeometry x="276" y="620" width="120" height="46" as="geometry" />
        </mxCell>
        <mxCell id="OYMo4t_dQI_FEYwo78l1-15" value="I-Q数据记录文件校验" style="ellipse;whiteSpace=wrap;html=1;" vertex="1" parent="1">
          <mxGeometry x="482" y="322" width="120" height="46" as="geometry" />
        </mxCell>
        <mxCell id="OYMo4t_dQI_FEYwo78l1-16" style="rounded=0;orthogonalLoop=1;jettySize=auto;html=1;exitX=0;exitY=0.5;exitDx=0;exitDy=0;entryX=1;entryY=1;entryDx=0;entryDy=0;dashed=1;" edge="1" parent="1" source="OYMo4t_dQI_FEYwo78l1-18" target="OYMo4t_dQI_FEYwo78l1-8">
          <mxGeometry relative="1" as="geometry" />
        </mxCell>
        <mxCell id="OYMo4t_dQI_FEYwo78l1-17" value="&amp;lt;&amp;lt;extend&amp;gt;&amp;gt;" style="edgeLabel;html=1;align=center;verticalAlign=middle;resizable=0;points=[];" vertex="1" connectable="0" parent="OYMo4t_dQI_FEYwo78l1-16">
          <mxGeometry x="-0.0909" y="1" relative="1" as="geometry">
            <mxPoint as="offset" />
          </mxGeometry>
        </mxCell>
        <mxCell id="OYMo4t_dQI_FEYwo78l1-18" value="校验错误提示" style="ellipse;whiteSpace=wrap;html=1;" vertex="1" parent="1">
          <mxGeometry x="482" y="393" width="120" height="46" as="geometry" />
        </mxCell>
        <mxCell id="OYMo4t_dQI_FEYwo78l1-19" value="I-Q数据记录文件校验" style="ellipse;whiteSpace=wrap;html=1;" vertex="1" parent="1">
          <mxGeometry x="487" y="470" width="120" height="46" as="geometry" />
        </mxCell>
        <mxCell id="OYMo4t_dQI_FEYwo78l1-20" style="rounded=0;orthogonalLoop=1;jettySize=auto;html=1;exitX=0;exitY=0.5;exitDx=0;exitDy=0;entryX=1;entryY=1;entryDx=0;entryDy=0;dashed=1;" edge="1" parent="1" source="OYMo4t_dQI_FEYwo78l1-22" target="OYMo4t_dQI_FEYwo78l1-11">
          <mxGeometry relative="1" as="geometry" />
        </mxCell>
        <mxCell id="OYMo4t_dQI_FEYwo78l1-21" value="&amp;lt;&amp;lt;extend&amp;gt;&amp;gt;" style="edgeLabel;html=1;align=center;verticalAlign=middle;resizable=0;points=[];" vertex="1" connectable="0" parent="OYMo4t_dQI_FEYwo78l1-20">
          <mxGeometry x="-0.2639" relative="1" as="geometry">
            <mxPoint as="offset" />
          </mxGeometry>
        </mxCell>
        <mxCell id="OYMo4t_dQI_FEYwo78l1-22" value="解调结果显示" style="ellipse;whiteSpace=wrap;html=1;" vertex="1" parent="1">
          <mxGeometry x="487" y="546" width="120" height="46" as="geometry" />
        </mxCell>
        <mxCell id="OYMo4t_dQI_FEYwo78l1-23" value="目录选择" style="ellipse;whiteSpace=wrap;html=1;" vertex="1" parent="1">
          <mxGeometry x="487" y="620" width="120" height="46" as="geometry" />
        </mxCell>
        <mxCell id="OYMo4t_dQI_FEYwo78l1-24" style="rounded=0;orthogonalLoop=1;jettySize=auto;html=1;exitX=0;exitY=0.5;exitDx=0;exitDy=0;entryX=1;entryY=1;entryDx=0;entryDy=0;dashed=1;" edge="1" parent="1" source="OYMo4t_dQI_FEYwo78l1-26" target="OYMo4t_dQI_FEYwo78l1-14">
          <mxGeometry relative="1" as="geometry" />
        </mxCell>
        <mxCell id="OYMo4t_dQI_FEYwo78l1-25" value="&amp;lt;&amp;lt;extend&amp;gt;&amp;gt;" style="edgeLabel;html=1;align=center;verticalAlign=middle;resizable=0;points=[];" vertex="1" connectable="0" parent="OYMo4t_dQI_FEYwo78l1-24">
          <mxGeometry x="0.1619" y="1" relative="1" as="geometry">
            <mxPoint x="10" y="7" as="offset" />
          </mxGeometry>
        </mxCell>
        <mxCell id="OYMo4t_dQI_FEYwo78l1-26" value="存储错误提示" style="ellipse;whiteSpace=wrap;html=1;" vertex="1" parent="1">
          <mxGeometry x="487" y="689" width="120" height="46" as="geometry" />
        </mxCell>
        <mxCell id="OYMo4t_dQI_FEYwo78l1-27" value="卫星突发信号解调系统" style="text;html=1;align=center;verticalAlign=middle;whiteSpace=wrap;rounded=0;" vertex="1" parent="1">
          <mxGeometry x="253" y="292" width="408" height="30" as="geometry" />
        </mxCell>
      </root>
    </mxGraphModel>
  </diagram>
</mxfile>
